<mxfile host="Electron" agent="Mozilla/5.0 (Windows NT 10.0; Win64; x64) AppleWebKit/537.36 (KHTML, like Gecko) draw.io/24.7.17 Chrome/128.0.6613.36 Electron/32.0.1 Safari/537.36" version="24.7.17">
  <diagram name="Page-1" id="4tyjsnh6CdYcau3jNT1Z">
    <mxGraphModel dx="1434" dy="836" grid="1" gridSize="10" guides="1" tooltips="1" connect="1" arrows="1" fold="1" page="1" pageScale="1" pageWidth="850" pageHeight="1100" math="0" shadow="0">
      <root>
        <mxCell id="0" />
        <mxCell id="1" parent="0" />
        <mxCell id="SpENWh8rtvLfFzSQoHcH-15" value="" style="rounded=1;whiteSpace=wrap;html=1;" vertex="1" parent="1">
          <mxGeometry x="160" y="150" width="470" height="430" as="geometry" />
        </mxCell>
        <mxCell id="SpENWh8rtvLfFzSQoHcH-1" value="" style="rounded=0;whiteSpace=wrap;html=1;" vertex="1" parent="1">
          <mxGeometry x="181" y="464" width="120" height="60" as="geometry" />
        </mxCell>
        <mxCell id="SpENWh8rtvLfFzSQoHcH-2" value="" style="rounded=0;whiteSpace=wrap;html=1;" vertex="1" parent="1">
          <mxGeometry x="330" y="464" width="120" height="60" as="geometry" />
        </mxCell>
        <mxCell id="SpENWh8rtvLfFzSQoHcH-3" value="" style="rounded=0;whiteSpace=wrap;html=1;" vertex="1" parent="1">
          <mxGeometry x="489" y="464" width="120" height="60" as="geometry" />
        </mxCell>
        <mxCell id="SpENWh8rtvLfFzSQoHcH-4" value="Inventory" style="text;html=1;align=center;verticalAlign=middle;whiteSpace=wrap;rounded=0;" vertex="1" parent="1">
          <mxGeometry x="201" y="479" width="60" height="30" as="geometry" />
        </mxCell>
        <mxCell id="SpENWh8rtvLfFzSQoHcH-5" value="Warehouse" style="text;html=1;align=center;verticalAlign=middle;whiteSpace=wrap;rounded=0;" vertex="1" parent="1">
          <mxGeometry x="360" y="479" width="60" height="25" as="geometry" />
        </mxCell>
        <mxCell id="SpENWh8rtvLfFzSQoHcH-6" value="Transport" style="text;html=1;align=center;verticalAlign=middle;whiteSpace=wrap;rounded=0;" vertex="1" parent="1">
          <mxGeometry x="519" y="479" width="60" height="30" as="geometry" />
        </mxCell>
        <mxCell id="SpENWh8rtvLfFzSQoHcH-8" value="" style="shape=cylinder3;whiteSpace=wrap;html=1;boundedLbl=1;backgroundOutline=1;size=15;" vertex="1" parent="1">
          <mxGeometry x="325" y="180" width="110" height="90" as="geometry" />
        </mxCell>
        <mxCell id="SpENWh8rtvLfFzSQoHcH-9" value="System Integration" style="text;html=1;align=center;verticalAlign=middle;whiteSpace=wrap;rounded=0;" vertex="1" parent="1">
          <mxGeometry x="335" y="220" width="100" height="30" as="geometry" />
        </mxCell>
        <mxCell id="SpENWh8rtvLfFzSQoHcH-10" value="" style="strokeWidth=2;html=1;shape=mxgraph.flowchart.annotation_2;align=left;labelPosition=right;pointerEvents=1;rotation=90;" vertex="1" parent="1">
          <mxGeometry x="285" y="219" width="190" height="300" as="geometry" />
        </mxCell>
        <mxCell id="SpENWh8rtvLfFzSQoHcH-11" value="" style="endArrow=none;html=1;rounded=0;" edge="1" parent="1">
          <mxGeometry width="50" height="50" relative="1" as="geometry">
            <mxPoint x="370" y="464" as="sourcePoint" />
            <mxPoint x="369.5604395604396" y="468" as="targetPoint" />
          </mxGeometry>
        </mxCell>
        <mxCell id="SpENWh8rtvLfFzSQoHcH-12" value="" style="endArrow=none;html=1;rounded=0;" edge="1" parent="1" source="SpENWh8rtvLfFzSQoHcH-10">
          <mxGeometry width="50" height="50" relative="1" as="geometry">
            <mxPoint x="330" y="420" as="sourcePoint" />
            <mxPoint x="380" y="370" as="targetPoint" />
          </mxGeometry>
        </mxCell>
        <mxCell id="SpENWh8rtvLfFzSQoHcH-16" value="&lt;font style=&quot;font-size: 40px;&quot;&gt;TechServe Ltd&lt;/font&gt;" style="text;html=1;align=center;verticalAlign=middle;whiteSpace=wrap;rounded=0;" vertex="1" parent="1">
          <mxGeometry x="245" y="110" width="290" height="40" as="geometry" />
        </mxCell>
        <mxCell id="SpENWh8rtvLfFzSQoHcH-17" value="&lt;h1 style=&quot;margin-top: 0px;&quot;&gt;2409000401/&lt;span style=&quot;white-space: pre;&quot;&gt;&#x9;&lt;/span&gt;NIKOMEZE Benjamin&lt;/h1&gt;" style="text;html=1;whiteSpace=wrap;overflow=hidden;rounded=0;" vertex="1" parent="1">
          <mxGeometry x="181" y="30" width="510" height="50" as="geometry" />
        </mxCell>
      </root>
    </mxGraphModel>
  </diagram>
</mxfile>
